# xmcd
#
# Track frame offsets: 
#        150
#        25943
#        40077
#        55702
#        73518
#        86467
#        98168
#        112699
#        125590
#        138681
#        158581
#        172286
#        186497
#        198106
#
# Disc length: 2837 seconds
#
# Revision: 0
# Processed by: cddbd v1.5.2PL0 Copyright (c) Steve Scherf et al.
# Submitted via: ExactAudioCopy v0.99pb5
#
DISCID=ba0b130e
DTITLE=Various Artist - Terra da Gente - Trilhas II
DYEAR=1900
DGENRE=
TTITLE0=Trenzinho do Caipira
TTITLE1=Viola de Todos os Cantos
TTITLE2=João Catarino
TTITLE3=Vila Bela
TTITLE4=Molequinho
TTITLE5=Corixo
TTITLE6=Além da Fronteira
TTITLE7=Branca
TTITLE8=Forrozinho
TTITLE9=Terra da Viola
TTITLE10=Passo Picado
TTITLE11=Ponto Azul
TTITLE12=Coxilha
TTITLE13=Hino Nacional Brasileiro
EXTD=
EXTT0=
EXTT1=
EXTT2=
EXTT3=
EXTT4=
EXTT5=
EXTT6=
EXTT7=
EXTT8=
EXTT9=
EXTT10=
EXTT11=
EXTT12=
EXTT13=
PLAYORDER=
